<svg id="레이어_1" data-name="레이어 1" xmlns="http://www.w3.org/2000/svg" viewBox="0 0 151.07 151.07"><defs><style>.cls-1{fill:none;}.cls-2{fill:#333;}</style></defs><title>2</title><path class="cls-1" d="M58.18,42.74V95.35c3.35-3,6.4-5.79,9.18-8.44v-46A35.79,35.79,0,0,0,58.18,42.74Z"/><path class="cls-1" d="M87.59,55.89c0-6.83-3.51-12.15-10.86-14.2V77.26C83.8,69.22,87.44,62.52,87.59,55.89Z"/><path class="cls-2" d="M34.16,26.51l9.17,24.14c1.68-1.2,3.51-2.42,5.47-3.57V18.82A62.67,62.67,0,0,0,34.16,26.51Z"/><path class="cls-2" d="M67.36,40.9V14.39A79.45,79.45,0,0,0,58.18,16V42.74A35.79,35.79,0,0,1,67.36,40.9Z"/><polygon class="cls-2" points="33.32 117.22 33.32 137.58 48.8 137.58 48.8 103.59 33.32 117.22"/><path class="cls-2" d="M123.38,109.88H81v-.37l12-9.46c14.31-11.74,28.21-27.37,28.21-46.83,0-23.9-16.55-39.14-44.5-39.33v27.8c7.35,2.05,10.86,7.37,10.86,14.2-.15,6.63-3.79,13.33-10.86,21.37v60.32h46.65Z"/><path class="cls-2" d="M58.18,95.35v42.23h9.18V86.91C64.58,89.56,61.53,92.36,58.18,95.35Z"/></svg>