<svg id="레이어_1" data-name="레이어 1" xmlns="http://www.w3.org/2000/svg" viewBox="0 0 151.07 151.07"><defs><style>.cls-1{fill:none;}.cls-2{fill:#333;}.cls-3{fill:#fff;}</style></defs><title>3</title><path class="cls-1" d="M85.59,99.3a12.33,12.33,0,0,0-1-5.06l-9,16.91C81.82,109.25,85.59,105.29,85.59,99.3Z"/><path class="cls-2" d="M36,105l-6.46,25.62c4.77,2.93,12,5.6,20.92,7.2L64,112.43C52.66,112.1,41,107.52,36,105Z"/><path class="cls-2" d="M73.76,11.62c-17.21,0-32.89,4.47-40.78,9.27l6.56,24.62c4.89-2.71,16-7.09,26.28-7.09,10.79,0,16.63,4.19,16.63,10.46,0,8.6-10.83,11.26-19.44,11.31H50.9V84.47H63.73a31.74,31.74,0,0,1,13.71,2.88l33.15-62.08C103.47,17,90.79,11.62,73.76,11.62Z"/><path class="cls-2" d="M117.14,43a27.62,27.62,0,0,0-1.12-7.7L97.21,70.54C110.64,65.08,117.14,55.35,117.14,43Z"/><path class="cls-2" d="M96.31,72.23l-11.76,22a12.33,12.33,0,0,1,1,5.06c0,6-3.77,10-10.07,11.85L60.61,139.07c2.47.18,5,.29,7.63.29,1,0,1.89-.06,2.83-.08l34.09-63.84A35.8,35.8,0,0,0,96.31,72.23Z"/><path class="cls-2" d="M112.91,81.15,82.43,138.21c23.84-3.89,38.7-17.77,38.7-36.91A28.1,28.1,0,0,0,112.91,81.15Z"/><path class="cls-3" d="M94.66,71.88c.56.1,1.1.23,1.65.35l.9-1.69c-.83.33-1.67.66-2.55,1Z"/></svg>