<svg id="레이어_1" data-name="레이어 1" xmlns="http://www.w3.org/2000/svg" viewBox="0 0 151.07 151.07"><defs><style>.cls-1{fill:none;}.cls-2{fill:#333;}</style></defs><title>4</title><path class="cls-1" d="M58.73,84l-.14.39h23V62.64c0-8,.49-16.37.93-25.17h-.73C77.68,46,74.13,54.14,69.51,62.93Z"/><polygon class="cls-2" points="83.71 12.31 70.73 12.31 70.12 13.35 114.56 50.64 114.56 38.19 83.71 12.31"/><path class="cls-2" d="M26.71,87.66v22.65H81.56v28.32h33V110.31h14V84.36h-14v-21L65.14,21.88ZM82.49,37.47c-.44,8.8-.93,17.15-.93,25.17V84.36h-23l.14-.39,10.78-21c4.62-8.79,8.17-16.9,12.25-25.46Z"/><polygon class="cls-2" points="114.56 12.31 98.85 12.31 114.56 25.48 114.56 12.31"/></svg>