<svg id="레이어_1" data-name="레이어 1" xmlns="http://www.w3.org/2000/svg" viewBox="0 0 151.07 151.07"><defs><style>.cls-1{fill:none;}.cls-2{fill:#333;}</style></defs><title>5</title><path class="cls-1" d="M74.6,44.71l-1.69,12.8a61.5,61.5,0,0,1,6.84-.27c1.26,0,2.52.06,3.79.12L81.22,44.71Z"/><path class="cls-1" d="M90.5,44.71,93,58.46A59.42,59.42,0,0,1,102.58,61l-3-16.3Z"/><polygon class="cls-2" points="99.59 44.71 94.65 17.83 85.56 17.83 90.5 44.71 99.59 44.71"/><polygon class="cls-2" points="120.93 44.71 120.93 17.83 103.93 17.83 108.87 44.71 120.93 44.71"/><path class="cls-2" d="M126.72,96.24c0-13.35-4.47-23-13.26-29.53-.2-.15-.43-.27-.63-.41l8.88,48.38A36.92,36.92,0,0,0,126.72,96.24Z"/><path class="cls-2" d="M102.58,61A59.42,59.42,0,0,0,93,58.46l13.15,71.61a46.55,46.55,0,0,0,8-6Z"/><path class="cls-2" d="M79.75,57.24a61.5,61.5,0,0,0-6.84.27l1.69-12.8h6.62L76.28,17.83H51.91l-7.7,64.42a113.6,113.6,0,0,1,15.72-1c15.31,0,24.64,2.58,29.33,7.33L83.54,57.36C82.27,57.3,81,57.24,79.75,57.24Z"/><path class="cls-2" d="M71.14,112.86a74.21,74.21,0,0,1-27.25-5.6l-5.46,24.56c7.06,3.32,19.54,6.47,34.48,6.47a70.45,70.45,0,0,0,24.72-4.18L92,103.29C88.89,110.4,79.4,112.86,71.14,112.86Z"/></svg>